<mxfile host="app.diagrams.net" agent="Mozilla/5.0 (Windows NT 10.0; Win64; x64; rv:130.0) Gecko/20100101 Firefox/130.0" version="24.7.16">
  <diagram name="Страница — 1" id="t4jZ7-XVJNXF6yLmWjbx">
    <mxGraphModel dx="976" dy="606" grid="1" gridSize="10" guides="1" tooltips="1" connect="1" arrows="1" fold="1" page="1" pageScale="1" pageWidth="827" pageHeight="1169" math="0" shadow="0">
      <root>
        <mxCell id="0" />
        <mxCell id="1" parent="0" />
        <mxCell id="avL2J_CI90qdSD80F_EQ-1" value="&lt;div&gt;deals&lt;/div&gt;" style="rounded=1;whiteSpace=wrap;html=1;fillColor=#dae8fc;strokeColor=#6c8ebf;" vertex="1" parent="1">
          <mxGeometry x="150" y="100" width="120" height="60" as="geometry" />
        </mxCell>
        <mxCell id="avL2J_CI90qdSD80F_EQ-2" value="payments" style="rounded=1;whiteSpace=wrap;html=1;fillColor=#dae8fc;strokeColor=#6c8ebf;" vertex="1" parent="1">
          <mxGeometry x="150" y="200" width="120" height="60" as="geometry" />
        </mxCell>
        <mxCell id="avL2J_CI90qdSD80F_EQ-3" value="&lt;div&gt;controls&lt;/div&gt;" style="rounded=1;whiteSpace=wrap;html=1;fillColor=#ffe6cc;strokeColor=#d79b00;" vertex="1" parent="1">
          <mxGeometry x="150" y="800" width="120" height="60" as="geometry" />
        </mxCell>
        <mxCell id="avL2J_CI90qdSD80F_EQ-4" value="tasks" style="rounded=1;whiteSpace=wrap;html=1;fillColor=#e1d5e7;strokeColor=#9673a6;" vertex="1" parent="1">
          <mxGeometry x="150" y="400" width="120" height="60" as="geometry" />
        </mxCell>
        <mxCell id="avL2J_CI90qdSD80F_EQ-5" value="pep" style="rounded=1;whiteSpace=wrap;html=1;fillColor=#e1d5e7;strokeColor=#9673a6;" vertex="1" parent="1">
          <mxGeometry x="150" y="500" width="120" height="60" as="geometry" />
        </mxCell>
        <mxCell id="avL2J_CI90qdSD80F_EQ-6" value="reports" style="rounded=1;whiteSpace=wrap;html=1;fillColor=#e1d5e7;strokeColor=#9673a6;" vertex="1" parent="1">
          <mxGeometry x="150" y="600" width="120" height="60" as="geometry" />
        </mxCell>
        <mxCell id="avL2J_CI90qdSD80F_EQ-7" value="loaners" style="rounded=1;whiteSpace=wrap;html=1;fillColor=#dae8fc;strokeColor=#6c8ebf;" vertex="1" parent="1">
          <mxGeometry x="150" width="120" height="60" as="geometry" />
        </mxCell>
        <mxCell id="avL2J_CI90qdSD80F_EQ-8" value="loan-petitions" style="rounded=1;whiteSpace=wrap;html=1;fillColor=#ffe6cc;strokeColor=#d79b00;" vertex="1" parent="1">
          <mxGeometry x="150" y="900" width="120" height="60" as="geometry" />
        </mxCell>
      </root>
    </mxGraphModel>
  </diagram>
</mxfile>
